<svg xmlns="http://www.w3.org/2000/svg" width="32" height="32" viewBox="0 0 32 32">
    <g id="Group_16767" data-name="Group 16767" transform="translate(-116.651 -154.149)">
        <path id="Path_25660" data-name="Path 25660" d="M6.846-.048a6.591,6.591,0,0,1,6.8,6.508,6.823,6.823,0,0,1-6.893,6.6,6.591,6.591,0,0,1-6.8-6.508A6.823,6.823,0,0,1,6.846-.048Z" transform="translate(125.144 176.093) rotate(-80.811)" fill="none" stroke="#83b542" stroke-linecap="round" stroke-width="2" />
        <line id="Line_156" data-name="Line 156" y1="4.551" transform="translate(132.652 155.149)" fill="none" stroke="#83b542" stroke-linecap="round" stroke-linejoin="round" stroke-width="2" />
        <line id="Line_157" data-name="Line 157" x1="3.219" y1="3.219" transform="translate(122.235 159.732)" fill="none" stroke="#83b542" stroke-linecap="round" stroke-linejoin="round" stroke-width="2" />
        <line id="Line_158" data-name="Line 158" x1="4.552" transform="translate(117.651 170.149)" fill="none" stroke="#83b542" stroke-linecap="round" stroke-linejoin="round" stroke-width="2" />
        <line id="Line_159" data-name="Line 159" x1="3.219" y2="3.218" transform="translate(122.235 177.349)" fill="none" stroke="#83b542" stroke-linecap="round" stroke-linejoin="round" stroke-width="2" />
        <line id="Line_160" data-name="Line 160" x1="0.001" y2="4.551" transform="translate(132.651 180.598)" fill="none" stroke="#83b542" stroke-linecap="round" stroke-linejoin="round" stroke-width="2" />
        <line id="Line_161" data-name="Line 161" x2="3.217" y2="3.218" transform="translate(139.851 177.349)" fill="none" stroke="#83b542" stroke-linecap="round" stroke-linejoin="round" stroke-width="2" />
        <line id="Line_162" data-name="Line 162" x2="4.552" y2="0.001" transform="translate(143.1 170.149)" fill="none" stroke="#83b542" stroke-linecap="round" stroke-linejoin="round" stroke-width="2" />
        <line id="Line_163" data-name="Line 163" y1="3.218" x2="3.219" transform="translate(139.851 159.733)" fill="none" stroke="#83b542" stroke-linecap="round" stroke-linejoin="round" stroke-width="2" />
    </g>
</svg>
  