<svg xmlns="http://www.w3.org/2000/svg" viewBox="0 0 443.71 361.9">
    <defs>
        <style>.cls-1{fill:#83B542;}</style>
    </defs>
    <g id="Layer_2" data-name="Layer 2">
        <g id="Layer_1-2" data-name="Layer 1">
            <path class="cls-1" d="M69.72,361.9A70,70,0,0,1,54.28,223.63a47.64,47.64,0,0,1,71.22-49.48A105.2,105.2,0,0,1,210,132.25,106.26,106.26,0,0,1,314.74,222a70,70,0,0,1-4.06,139.86Zm31.4-174.44a27.65,27.65,0,0,0-27.61,27.61,27.25,27.25,0,0,0,2.94,12.38,10,10,0,0,1-8.54,14.48,50,50,0,0,0,1.87,100h240.8a50,50,0,0,0-.6-100c-1,0-2.14,0-3.51.14a10,10,0,0,1-10.67-9.34,86,86,0,0,0-159.46-38.94,10,10,0,0,1-15.64,1.87A27.38,27.38,0,0,0,101.12,187.46Z" />
            <path class="cls-1" d="M369,237.07a10,10,0,0,1-2.29-19.74,99.67,99.67,0,0,0,48.09-27A120.09,120.09,0,0,1,335.06,20.36a100,100,0,0,0-91.36,96.82,10,10,0,0,1-20-.55A120,120,0,0,1,343.66,0c3.21,0,6.49.13,9.76.4a10,10,0,0,1,7.38,15.72,100,100,0,0,0,73.71,157.1,10,10,0,0,1,7.38,15.72,119.91,119.91,0,0,1-70.6,47.86A10.1,10.1,0,0,1,369,237.07Z" />
        </g>
    </g>
</svg>