<svg xmlns="http://www.w3.org/2000/svg" viewBox="0 0 380 314.46">
    <defs>
        <style>.cls-1{fill:#83B542;}</style>
    </defs>
    <g id="Layer_2" data-name="Layer 2">
        <g id="Layer_1-2" data-name="Layer 1">
            <path class="cls-1" d="M310.58,229.55H300l-230.28-.09A69.93,69.93,0,0,1,54.28,91.38,47.64,47.64,0,0,1,125.49,41.9,106,106,0,0,1,314.73,89.77a70,70,0,0,1-4.05,139.78Zm-10.58-20h10.54a50,50,0,0,0-.56-99.94c-1.18,0-2.44.07-3.51.15a10,10,0,0,1-10.67-9.34A86,86,0,0,0,136.34,61.49a10,10,0,0,1-15.64,1.87A27.61,27.61,0,0,0,76.44,95.2a10,10,0,0,1-8.54,14.48,49.91,49.91,0,0,0,1.82,99.78H80Z" />
            <path class="cls-1" d="M287.62,314.46h0l-56.38,0a10,10,0,1,1,0-20h0l56.37,0a10,10,0,1,1,0,20Z" />
            <path class="cls-1" d="M192.25,314.46h0l-99.42,0a10,10,0,1,1,0-20h0l99.41,0a10,10,0,1,1,0,20Z" />
            <path class="cls-1" d="M310.88,272.46h0l-129.54,0a10,10,0,1,1,0-20h0l129.54,0a10,10,0,1,1,0,20Z" />
            <path class="cls-1" d="M143.88,272.46h0l-71.54,0a10,10,0,1,1,0-20h0l71.54,0a10,10,0,1,1,0,20Z" />
        </g>
    </g>
</svg>