<svg fill="#000" id="Component_3_1" data-name="Component 3 – 1" xmlns="http://www.w3.org/2000/svg" width="50" height="50" viewBox="0 0 36 36">
    <g id="Component_2_1" data-name="Component 2 – 1">
        <rect id="Rectangle_4049" data-name="Rectangle 4049" width="36" height="36" rx="2" fill="gray"/>
    </g>
    <path id="apple" d="M9,1.74A4.281,4.281,0,0,1,12.137,0,4.271,4.271,0,0,1,11.1,3.2,3.378,3.378,0,0,1,8.125,4.6,3.714,3.714,0,0,1,9,1.74Zm-.7,4c.676,0,1.931-.929,3.564-.929a4.464,4.464,0,0,1,3.917,2A4.343,4.343,0,0,0,13.61,10.6a4.453,4.453,0,0,0,2.694,4.07s-1.884,5.3-4.428,5.3c-1.169,0-2.077-.787-3.308-.787-1.255,0-2.5.817-3.311.817C2.935,20,0,14.971,0,10.929,0,6.951,2.484,4.865,4.814,4.865c1.515,0,2.69.874,3.478.874Z" transform="translate(10.348 7.5)" fill="#fff" />
</svg>
  