<svg id="Group_16226" data-name="Group 16226" xmlns="http://www.w3.org/2000/svg" width="24" height="24" viewBox="0 0 24 24">
    <path id="Path_25161" data-name="Path 25161" d="M0,0H24V24H0Z" fill="none" />
    <path id="Subtraction_3" data-name="Subtraction 3" d="M20666.252,20770h-16a.753.753,0,0,1-.75-.75v-12a.753.753,0,0,1,.75-.75h3.254v-2.248a4.748,4.748,0,1,1,9.5,0v2.248h3.254a.753.753,0,0,1,.75.75v12A.753.753,0,0,1,20666.252,20770Zm-15.252-12v10.5h14.5V20758h-2.5v2h-1.5v-2h-6.5v2h-1.5v-2h-2.5Zm7.25-7a3.254,3.254,0,0,0-3.248,3.252v2.248h6.5v-2.248A3.254,3.254,0,0,0,20658.25,20751Z" transform="translate(-20646.25 -20748.25)" fill="#363328" />
</svg>