<svg id="Group_16363" data-name="Group 16363" xmlns="http://www.w3.org/2000/svg" width="30" height="30" viewBox="0 0 30 30">
    <path id="Path_25210" data-name="Path 25210" d="M0,0H30V30H0Z" fill="none" />
    <path id="Path_25211" data-name="Path 25211" d="M11.733,5.478,9.246,7.956H4.487V22.824H24.381V7.956h-4.76L17.135,5.478ZM10.7,3h7.46l2.487,2.478h4.974a1.241,1.241,0,0,1,1.243,1.239V24.063A1.241,1.241,0,0,1,25.624,25.3H3.243A1.241,1.241,0,0,1,2,24.063V6.717A1.241,1.241,0,0,1,3.243,5.478H8.217Zm.8,5.613a6.821,6.821,0,0,1,7.693,11.052l-2.583-4.77h2.175V14.77a4.351,4.351,0,0,0-6.127-3.96Zm5.815,12.34A6.821,6.821,0,0,1,9.631,9.92l2.627,4.851H10.082a4.351,4.351,0,0,0,6.075,3.983l1.158,2.2Z" transform="translate(0.566 0.849)" fill="#363328" stroke="#fff5ce" stroke-width="0.5" />
</svg>
  