<svg xmlns="http://www.w3.org/2000/svg" xmlns:xlink="http://www.w3.org/1999/xlink" width="24" height="24" viewBox="0 0 24 24">
    <defs>
        <clipPath id="clip-path">
            <rect id="Rectangle_4077" data-name="Rectangle 4077" width="24" height="24" transform="translate(117 370)" fill="#fff" stroke="#707070" stroke-width="1" />
        </clipPath>
    </defs>
    <g id="Group_16531" data-name="Group 16531" transform="translate(-115 -370)">
        <g id="Mask_Group_86" data-name="Mask Group 86" transform="translate(-2)" clip-path="url(#clip-path)">
            <path id="Path_25388" data-name="Path 25388" d="M12.736,35.672a.636.636,0,0,0,.636.636h1.474a.636.636,0,0,0,.636-.636V34.81h.862a.638.638,0,0,0,.636-.636V32.7a.636.636,0,0,0-.636-.636h-.862V31.2a.636.636,0,0,0-.636-.636H13.372a.636.636,0,0,0-.636.636v.862h-.862a.636.636,0,0,0-.636.636v1.474a.638.638,0,0,0,.636.636h.862Zm-.685-1.677V32.876H13a.551.551,0,0,0,.55-.548v-.95h1.117v.95a.551.551,0,0,0,.55.548h.95v1.118h-.95a.551.551,0,0,0-.55.55v.95H13.551v-.95a.551.551,0,0,0-.55-.55Zm11.773-7.04h-2.7v-.6a.945.945,0,0,0-.945-.945H14.445a.947.947,0,0,0-.946.945v.6H10.8a1.067,1.067,0,0,0-1.064,1.066V44.6A1.066,1.066,0,0,0,10.8,45.66H23.825A1.064,1.064,0,0,0,24.888,44.6V28.021A1.066,1.066,0,0,0,23.825,26.955Zm-9.511,0v-.6a.13.13,0,0,1,.132-.132h5.736a.131.131,0,0,1,.132.132V28.36a.133.133,0,0,1-.132.133H14.445a.133.133,0,0,1-.132-.133ZM24.075,44.6a.251.251,0,0,1-.25.251H10.8a.252.252,0,0,1-.251-.251V28.021a.252.252,0,0,1,.251-.253h2.7v.592a.948.948,0,0,0,.946.946h5.736a.947.947,0,0,0,.945-.946v-.592h2.7a.251.251,0,0,1,.25.253Zm-1.525-11.1H17.926a.407.407,0,0,1,0-.813H22.55A.407.407,0,0,1,22.55,33.492Zm0,2.409H17.926a.407.407,0,0,1,0-.813H22.55A.407.407,0,0,1,22.55,35.9Zm0,2.409H12.89a.407.407,0,0,1,0-.813h9.66A.407.407,0,0,1,22.55,38.31Zm0,2.409H12.89a.407.407,0,0,1,0-.813h9.66A.407.407,0,0,1,22.55,40.719Zm0,2.409H12.89a.407.407,0,0,1,0-.813h9.66A.407.407,0,0,1,22.55,43.128Z" transform="translate(111.763 346.094)" fill="#5a5a5a" stroke="#5a5a5a" stroke-width="0.3" />
        </g>
        <path id="Path_25389" data-name="Path 25389" d="M12.736,35.672a.636.636,0,0,0,.636.636h1.474a.636.636,0,0,0,.636-.636V34.81h.862a.638.638,0,0,0,.636-.636V32.7a.636.636,0,0,0-.636-.636h-.862V31.2a.636.636,0,0,0-.636-.636H13.372a.636.636,0,0,0-.636.636v.862h-.862a.636.636,0,0,0-.636.636v1.474a.638.638,0,0,0,.636.636h.862Zm-.685-1.677V32.876H13a.551.551,0,0,0,.55-.548v-.95h1.117v.95a.551.551,0,0,0,.55.548h.95v1.118h-.95a.551.551,0,0,0-.55.55v.95H13.551v-.95a.551.551,0,0,0-.55-.55Z" transform="translate(109.763 346.094)" fill="#83b542" stroke="#83b542" stroke-width="0.3" />
    </g>
</svg>
  