<svg id="Group_16706" data-name="Group 16706" xmlns="http://www.w3.org/2000/svg" width="16" height="16" viewBox="0 0 16 16">
    <path id="Path_25523" data-name="Path 25523" d="M0,0H16V16H0Z" fill="none" />
    <path id="Path_25524" data-name="Path 25524" d="M8.641,15.281a6.641,6.641,0,1,1,6.641-6.641A6.64,6.64,0,0,1,8.641,15.281Zm0-1.328A5.312,5.312,0,1,0,3.328,8.641,5.313,5.313,0,0,0,8.641,13.953ZM5.32,9.3H6.648a1.992,1.992,0,0,0,3.984,0h1.328a3.32,3.32,0,0,1-6.641,0Zm.664-1.328a1,1,0,1,1,1-1A1,1,0,0,1,5.984,7.977Zm5.313,0a1,1,0,1,1,1-1A1,1,0,0,1,11.3,7.977Z" transform="translate(-0.641 -0.641)" fill="#9ea1ac" stroke="#fff" stroke-width="0.5" />
</svg>
  