<svg id="Group_16705" data-name="Group 16705" xmlns="http://www.w3.org/2000/svg" width="16" height="16" viewBox="0 0 16 16">
    <path id="Path_25521" data-name="Path 25521" d="M0,0H16V16H0Z" fill="none" />
    <path id="Path_25522" data-name="Path 25522" d="M8.641,15.281a6.641,6.641,0,1,1,6.641-6.641A6.64,6.64,0,0,1,8.641,15.281Zm0-1.328A5.312,5.312,0,1,0,3.328,8.641,5.313,5.313,0,0,0,8.641,13.953ZM5.984,9.969H11.3V11.3H5.984Zm0-1.992a1,1,0,1,1,1-1A1,1,0,0,1,5.984,7.977Zm5.313,0a1,1,0,1,1,1-1A1,1,0,0,1,11.3,7.977Z" transform="translate(-0.641 -0.641)" fill="#9ea1ac" stroke="#fff" stroke-width="0.5" />
</svg>
  