<svg xmlns="http://www.w3.org/2000/svg" xmlns:xlink="http://www.w3.org/1999/xlink" width="53" height="84" viewBox="0 0 53 84" color="#e0e0e0">
  <defs>
    <clipPath id="clip-path">
      <rect id="Rectangle_4079" data-name="Rectangle 4079" width="53" height="84" transform="translate(46 268)" fill="#fff" stroke="#707070" stroke-width="1" />
    </clipPath>
  </defs>
  <g id="Mask_Group_88" data-name="Mask Group 88" transform="translate(-46 -268)" clip-path="url(#clip-path)">
    <g id="Group_16573" data-name="Group 16573" transform="translate(50 275)">
      <path id="Path_25390" data-name="Path 25390" d="M310.329,142.047s-4.93-4.862.405-9.657a7.311,7.311,0,0,1,6.686-1.351s3.579-5.4,11.413-2.026c0,0,5.4,2.634,5.673,7.159,0,0,3.849.068,4.052,3.849s-1.351,5.268-3.107,6.281c0,0,6.146,4.12,5.875,16.884a31.8,31.8,0,0,1-.878,6.686s1.283,3.242.135,5.943-2.094,3.849-4.592,3.647l-1.891,5.47a19.644,19.644,0,0,1-6.416,7.969c-4.66,3.377-6.753,4.727-9.05,4.592s-8.172-4.727-8.847-5.268-3.985-2.7-5.2-6.078-2.229-6.753-2.229-6.753-3.174,1.013-5.065-2.9.405-6.348.405-6.348-2.431-9.05,1.958-16.748l1.958-3.242S303.17,145.559,310.329,142.047Z" transform="translate(-296.548 -127.822)" fill="#fff" />
      <path id="Path_25391" data-name="Path 25391" d="M299.763,179.871s-2.634-27.149,21.813-27.621c0,0,23.772.068,19.517,28.162,0,0-.945-.945-2.3.743,0,0-.405-9.387-12.494-17.964a1.946,1.946,0,0,0-1.081.338c-.405.338-10.2,6.686-17.221,8.509,0,0-6.078,1.891-7.429,7.834C300.573,179.871,299.9,179.6,299.763,179.871Z" transform="translate(-297.988 -139.015)" fill="currentColor" />
      <path id="Path_25392" data-name="Path 25392" d="M321.241,141.864a5.984,5.984,0,0,1-1.26-5.492c.9-3.242,4.952-3.872,7.834-4.142.38-.036,5.763-4.953,11.435-1.351s5.943,6.483,5.943,6.483,6.394,1.981.991,8.644C346.183,146.006,335.828,135.38,321.241,141.864Z" transform="translate(-307.22 -128.584)" fill="currentColor" />
      <g id="Group_16538" data-name="Group 16538" transform="translate(11.595 0.001)">
        <g id="Group_16533" data-name="Group 16533" transform="translate(0 2.956)">
          <g id="Group_16532" data-name="Group 16532">
            <path id="Path_25393" data-name="Path 25393" d="M320.125,144.389a5.723,5.723,0,0,1-1.895-6.045,7.128,7.128,0,0,1,4.775-4.8,7.9,7.9,0,0,1,4.351-.024" transform="translate(-318.01 -133.226)" fill="none" stroke="#55565c" stroke-linecap="round" stroke-linejoin="round" stroke-width="1" />
          </g>
        </g>
        <g id="Group_16535" data-name="Group 16535" transform="translate(7.724)">
          <g id="Group_16534" data-name="Group 16534">
            <path id="Path_25394" data-name="Path 25394" d="M332.843,138.658a7.988,7.988,0,0,1,4.588-10.363,10.348,10.348,0,0,1,8.971,1.252,10.568,10.568,0,0,1,3.344,3.176,9.068,9.068,0,0,1-.554,10.2" transform="translate(-332.305 -127.755)" fill="none" stroke="#55565c" stroke-linecap="round" stroke-linejoin="round" stroke-width="1" />
          </g>
        </g>
        <g id="Group_16537" data-name="Group 16537" transform="translate(26.485 8.165)">
          <g id="Group_16536" data-name="Group 16536">
            <path id="Path_25395" data-name="Path 25395" d="M367.031,142.867a4.906,4.906,0,0,1,4.053,4.211,6.449,6.449,0,0,1-2.3,5.581,8.183,8.183,0,0,1-.93.655" transform="translate(-367.031 -142.867)" fill="none" stroke="#55565c" stroke-linecap="round" stroke-linejoin="round" stroke-width="1" />
          </g>
        </g>
      </g>
      <g id="Group_16540" data-name="Group 16540" transform="translate(4.161 45.777)">
        <g id="Group_16539" data-name="Group 16539">
          <path id="Path_25396" data-name="Path 25396" d="M340.674,213.474c-.831,2.808-1.253,4.79-2.346,8.124-.1.307-.2.655-.312,1.04a22.888,22.888,0,0,1-5.637,8.325,28.156,28.156,0,0,1-7.777,4.9,4.562,4.562,0,0,1-2.619.418,7.175,7.175,0,0,1-2.185-.676c-2.671-1.634-3.991-2.661-6.545-4.467a16.641,16.641,0,0,1-3.1-2.928,19.974,19.974,0,0,1-3.052-6.1c-1.378-4.007-1.469-5.623-2.847-9.63" transform="translate(-304.25 -212.483)" fill="none" stroke="#55565c" stroke-linecap="round" stroke-linejoin="round" stroke-width="1" />
        </g>
      </g>
      <g id="Group_16543" data-name="Group 16543" transform="translate(39.331 41.932)">
        <g id="Group_16542" data-name="Group 16542">
          <g id="Group_16541" data-name="Group 16541">
            <path id="Path_25397" data-name="Path 25397" d="M371.648,205.923a1.165,1.165,0,0,1,1.685-.327,3.137,3.137,0,0,1,1,2.024,8.92,8.92,0,0,1-.057,2.64,8.656,8.656,0,0,1-.536,2.076,5.308,5.308,0,0,1-1.245,1.789,4.349,4.349,0,0,1-1.8,1.058,1.369,1.369,0,0,1-1.346-.2" transform="translate(-369.346 -205.365)" fill="none" stroke="#55565c" stroke-linecap="round" stroke-linejoin="round" stroke-width="1" />
          </g>
        </g>
      </g>
      <g id="Group_16545" data-name="Group 16545" transform="translate(0.093 41.978)">
        <g id="Group_16544" data-name="Group 16544">
          <path id="Path_25398" data-name="Path 25398" d="M299.792,205.994a1.374,1.374,0,0,0-1.871-.3,3.1,3.1,0,0,0-1.115,2.041,8.039,8.039,0,0,0,.054,2.641,7.847,7.847,0,0,0,.588,2.069,5.215,5.215,0,0,0,1.376,1.773,4.876,4.876,0,0,0,1.994,1.033,1.671,1.671,0,0,0,1.5-.22" transform="translate(-296.719 -205.45)" fill="none" stroke="#55565c" stroke-linecap="round" stroke-linejoin="round" stroke-width="1" />
        </g>
      </g>
      <g id="Group_16547" data-name="Group 16547" transform="translate(23.914 12.284)">
        <g id="Group_16546" data-name="Group 16546">
          <path id="Path_25399" data-name="Path 25399" d="M340.811,150.489c11.361.729,17.5,7.788,19.465,13.265a25.57,25.57,0,0,1,1.2,11.368s-.57,5.268-.75,5.718" transform="translate(-340.811 -150.489)" fill="none" stroke="#55565c" stroke-linecap="round" stroke-linejoin="round" stroke-width="1" />
        </g>
      </g>
      <g id="Group_16549" data-name="Group 16549" transform="translate(3.515 12.3)">
        <g id="Group_16548" data-name="Group 16548">
          <path id="Path_25400" data-name="Path 25400" d="M303.055,162.98c4.12-9.657,12.146-12.067,19.464-12.46" transform="translate(-303.055 -150.52)" fill="none" stroke="#55565c" stroke-linecap="round" stroke-linejoin="round" stroke-width="1" />
        </g>
      </g>
      <path id="Path_25401" data-name="Path 25401" d="M326.98,174.458s-10.642,7.258-18.357,9.233a11.2,11.2,0,0,0-6.116,6.586" transform="translate(-299.287 -149.225)" fill="none" stroke="#55565c" stroke-linecap="round" stroke-linejoin="round" stroke-width="1" />
      <path id="Path_25402" data-name="Path 25402" d="M349.876,175.352s9.6,6.774,11.291,16.936" transform="translate(-321.064 -149.636)" fill="none" stroke="#55565c" stroke-linecap="round" stroke-linejoin="round" stroke-width="1" />
      <path id="Path_25403" data-name="Path 25403" d="M344.532,128.167s-6.393,2.7-4.232,9.544" transform="translate(-316.457 -127.943)" fill="none" stroke="#55565c" stroke-linecap="round" stroke-linejoin="round" stroke-width="1" />
      <path id="Path_25404" data-name="Path 25404" d="M325.1,133.814s-5.084,4.062-.852,8.655" transform="translate(-308.509 -130.539)" fill="none" stroke="#55565c" stroke-linecap="round" stroke-linejoin="round" stroke-width="1" />
      <path id="Path_25405" data-name="Path 25405" d="M358.766,147.924a8.611,8.611,0,0,1-1.92,2.022" transform="translate(-324.269 -137.026)" fill="none" stroke="#55565c" stroke-linecap="round" stroke-linejoin="round" stroke-width="1" />
      <path id="Path_25406" data-name="Path 25406" d="M361.513,133.667a9.129,9.129,0,0,1,.582,4.6" transform="translate(-326.414 -130.472)" fill="none" stroke="#55565c" stroke-linecap="round" stroke-linejoin="round" stroke-width="1" />
      <g id="Group_16560" data-name="Group 16560" transform="translate(7.111 37.119)">
        <g id="Group_16551" data-name="Group 16551">
          <g id="Group_16550" data-name="Group 16550">
            <path id="Path_25407" data-name="Path 25407" d="M318.4,196.458a14.776,14.776,0,0,1-8.688,1.93" transform="translate(-309.71 -196.458)" fill="none" stroke="#55565c" stroke-linecap="round" stroke-linejoin="round" stroke-width="1" />
          </g>
        </g>
        <g id="Group_16553" data-name="Group 16553" transform="translate(19.584 0.954)">
          <g id="Group_16552" data-name="Group 16552">
            <path id="Path_25408" data-name="Path 25408" d="M355.2,198.643a22.185,22.185,0,0,1-9.24-.42" transform="translate(-345.959 -198.223)" fill="none" stroke="#55565c" stroke-linecap="round" stroke-linejoin="round" stroke-width="1" />
          </g>
        </g>
        <g id="Group_16557" data-name="Group 16557" transform="translate(9.233 22.162)">
          <g id="Group_16556" data-name="Group 16556" transform="translate(4.553 3.595)">
            <g id="Group_16555" data-name="Group 16555">
              <g id="Group_16554" data-name="Group 16554">
                <path id="Path_25409" data-name="Path 25409" d="M335.227,244.133a3.946,3.946,0,0,0,3.394.044" transform="translate(-335.227 -244.133)" fill="none" stroke="#55565c" stroke-linecap="round" stroke-linejoin="round" stroke-width="1" />
              </g>
            </g>
          </g>
          <path id="Path_25410" data-name="Path 25410" d="M339.784,239.235s-6.492-3.952-12.985,0" transform="translate(-326.799 -237.479)" fill="none" stroke="#55565c" stroke-linecap="round" stroke-linejoin="round" stroke-width="1" />
        </g>
        <g id="Group_16558" data-name="Group 16558" transform="translate(0.949 6.003)">
          <path id="Path_25411" data-name="Path 25411" d="M311.9,214.187s4.352,3.482,8.522,0" transform="translate(-311.663 -210.611)" fill="none" stroke="#55565c" stroke-linecap="round" stroke-linejoin="round" stroke-width="1" />
          <path id="Path_25412" data-name="Path 25412" d="M323.994,209.5a4.646,4.646,0,0,0-3.434-1.929" transform="translate(-315.647 -207.569)" fill="none" stroke="#55565c" stroke-linecap="round" stroke-linejoin="round" stroke-width="1" />
          <path id="Path_25413" data-name="Path 25413" d="M312.749,215.493s-.367,1.5-1.283,1.76" transform="translate(-311.466 -211.212)" fill="none" stroke="#55565c" stroke-linecap="round" stroke-linejoin="round" stroke-width="1" />
          <path id="Path_25414" data-name="Path 25414" d="M314.755,216.16s-.039,1.547-.88,1.992" transform="translate(-312.573 -211.519)" fill="none" stroke="#55565c" stroke-linecap="round" stroke-linejoin="round" stroke-width="1" />
        </g>
        <g id="Group_16559" data-name="Group 16559" transform="translate(19.767 6.003)">
          <path id="Path_25415" data-name="Path 25415" d="M354.819,214.187s-4.352,3.482-8.522,0" transform="translate(-346.297 -210.611)" fill="none" stroke="#55565c" stroke-linecap="round" stroke-linejoin="round" stroke-width="1" />
          <path id="Path_25416" data-name="Path 25416" d="M347.05,209.5a4.648,4.648,0,0,1,3.434-1.929" transform="translate(-346.643 -207.569)" fill="none" stroke="#55565c" stroke-linecap="round" stroke-linejoin="round" stroke-width="1" />
          <path id="Path_25417" data-name="Path 25417" d="M360.125,215.493s.367,1.5,1.283,1.76" transform="translate(-352.654 -211.212)" fill="none" stroke="#55565c" stroke-linecap="round" stroke-linejoin="round" stroke-width="1" />
          <path id="Path_25418" data-name="Path 25418" d="M358.463,216.16s.039,1.547.88,1.992" transform="translate(-351.89 -211.519)" fill="none" stroke="#55565c" stroke-linecap="round" stroke-linejoin="round" stroke-width="1" />
        </g>
        <path id="Path_25419" data-name="Path 25419" d="M333.665,228.424s1.121.387,1.43,1.082" transform="translate(-320.723 -211.154)" fill="none" stroke="#55565c" stroke-linecap="round" stroke-linejoin="round" stroke-width="1" />
        <path id="Path_25420" data-name="Path 25420" d="M340.052,228.429s-1.122.383-1.433,1.077" transform="translate(-323 -211.156)" fill="none" stroke="#55565c" stroke-linecap="round" stroke-linejoin="round" stroke-width="1" />
      </g>
      <path id="Path_25421" data-name="Path 25421" d="M299.791,175.833s-3.6,7.2-1.981,15.128" transform="translate(-296.936 -149.857)" fill="none" stroke="#55565c" stroke-linecap="round" stroke-linejoin="round" stroke-width="1" />
      <path id="Path_25422" data-name="Path 25422" d="M325.735,168.99s-18.369-7.384-24.4,14.678" transform="translate(-298.748 -146.165)" fill="none" stroke="#55565c" stroke-linecap="round" stroke-linejoin="round" stroke-width="1" />
      <path id="Path_25423" data-name="Path 25423" d="M351.167,170.333s11.976,3.512,12.336,18.009" transform="translate(-321.658 -147.328)" fill="none" stroke="#55565c" stroke-linecap="round" stroke-linejoin="round" stroke-width="1" />
      <path id="Path_25424" data-name="Path 25424" d="M350.5,165.317s4.862-2.251,10.985,3.782" transform="translate(-321.351 -144.833)" fill="none" stroke="#55565c" stroke-linecap="round" stroke-linejoin="round" stroke-width="1" />
      <path id="Path_25425" data-name="Path 25425" d="M334.015,161.853s-6.3-7.924-15.848-2.7" transform="translate(-306.487 -141.369)" fill="none" stroke="#55565c" stroke-linecap="round" stroke-linejoin="round" stroke-width="1" />
      <g id="Group_16572" data-name="Group 16572" transform="translate(10.258 32.163)">
        <g id="Group_16562" data-name="Group 16562" transform="translate(16.73 18.122)">
          <path id="Path_25426" data-name="Path 25426" d="M348.4,222.015a.964.964,0,1,1-.713-1.162A.963.963,0,0,1,348.4,222.015Z" transform="translate(-346.501 -220.827)" fill="#83b542" opacity="0.6" />
          <path id="Path_25427" data-name="Path 25427" d="M348.4,222.015a.964.964,0,1,1-.713-1.162A.963.963,0,0,1,348.4,222.015Z" transform="translate(-346.501 -220.827)" fill="#83b542" opacity="0.6" />
        </g>
        <g id="Group_16563" data-name="Group 16563" transform="translate(0 19.225)">
          <path id="Path_25428" data-name="Path 25428" d="M317.807,224.288a1.152,1.152,0,1,1-.852-1.388A1.15,1.15,0,0,1,317.807,224.288Z" transform="translate(-315.535 -222.868)" fill="#83b542" opacity="0.6" />
          <path id="Path_25429" data-name="Path 25429" d="M317.807,224.288a1.152,1.152,0,1,1-.852-1.388A1.15,1.15,0,0,1,317.807,224.288Z" transform="translate(-315.535 -222.868)" fill="#83b542" opacity="0.6" />
        </g>
        <g id="Group_16564" data-name="Group 16564" transform="translate(6.295 17.146)">
          <path id="Path_25430" data-name="Path 25430" d="M328.941,220.117a.89.89,0,1,1-.658-1.073A.888.888,0,0,1,328.941,220.117Z" transform="translate(-327.186 -219.019)" fill="#83b542" opacity="0.6" />
          <path id="Path_25431" data-name="Path 25431" d="M328.941,220.117a.89.89,0,1,1-.658-1.073A.888.888,0,0,1,328.941,220.117Z" transform="translate(-327.186 -219.019)" fill="#83b542" opacity="0.6" />
        </g>
        <g id="Group_16565" data-name="Group 16565" transform="translate(11.209 9.26)">
          <path id="Path_25432" data-name="Path 25432" d="M339.684,208.951a.89.89,0,1,1-.658-1.072A.889.889,0,0,1,339.684,208.951Z" transform="translate(-337.929 -207.854)" fill="#83b542" opacity="0.6" />
          <path id="Path_25433" data-name="Path 25433" d="M339.684,208.951a.89.89,0,1,1-.658-1.072A.889.889,0,0,1,339.684,208.951Z" transform="translate(-337.929 -207.854)" fill="#83b542" opacity="0.6" />
        </g>
        <g id="Group_16566" data-name="Group 16566" transform="translate(20.7 24.299)">
          <path id="Path_25434" data-name="Path 25434" d="M355.228,233.121a.7.7,0,1,1-.518-.843A.7.7,0,0,1,355.228,233.121Z" transform="translate(-353.848 -232.258)" fill="#83b542" opacity="0.6" />
          <path id="Path_25435" data-name="Path 25435" d="M355.228,233.121a.7.7,0,1,1-.518-.843A.7.7,0,0,1,355.228,233.121Z" transform="translate(-353.848 -232.258)" fill="#83b542" opacity="0.6" />
        </g>
        <g id="Group_16567" data-name="Group 16567" transform="translate(4.918 23.327)">
          <path id="Path_25436" data-name="Path 25436" d="M326.017,231.323a.7.7,0,1,1-.518-.843A.7.7,0,0,1,326.017,231.323Z" transform="translate(-324.637 -230.46)" fill="#83b542" opacity="0.6" />
          <path id="Path_25437" data-name="Path 25437" d="M326.017,231.323a.7.7,0,1,1-.518-.843A.7.7,0,0,1,326.017,231.323Z" transform="translate(-324.637 -230.46)" fill="#83b542" opacity="0.6" />
        </g>
        <g id="Group_16568" data-name="Group 16568" transform="translate(3.233 27.139)">
          <path id="Path_25438" data-name="Path 25438" d="M322.9,238.379a.7.7,0,1,1-.517-.843A.7.7,0,0,1,322.9,238.379Z" transform="translate(-321.518 -237.516)" fill="#83b542" opacity="0.6" />
          <path id="Path_25439" data-name="Path 25439" d="M322.9,238.379a.7.7,0,1,1-.517-.843A.7.7,0,0,1,322.9,238.379Z" transform="translate(-321.518 -237.516)" fill="#83b542" opacity="0.6" />
        </g>
        <g id="Group_16569" data-name="Group 16569" transform="translate(7.793 4.862)">
          <path id="Path_25440" data-name="Path 25440" d="M331.338,197.145a.7.7,0,1,1-.517-.843A.7.7,0,0,1,331.338,197.145Z" transform="translate(-329.959 -196.282)" fill="#83b542" opacity="0.6" />
          <path id="Path_25441" data-name="Path 25441" d="M331.338,197.145a.7.7,0,1,1-.517-.843A.7.7,0,0,1,331.338,197.145Z" transform="translate(-329.959 -196.282)" fill="#83b542" opacity="0.6" />
        </g>
        <g id="Group_16610" data-name="Group 16610" transform="translate(0.453 7.862)">
          <path id="Path_25440-2" data-name="Path 25440" d="M331.338,197.145a.7.7,0,1,1-.517-.843A.7.7,0,0,1,331.338,197.145Z" transform="translate(-329.959 -196.282)" fill="#83b542" opacity="0.6" />
          <path id="Path_25441-2" data-name="Path 25441" d="M331.338,197.145a.7.7,0,1,1-.517-.843A.7.7,0,0,1,331.338,197.145Z" transform="translate(-329.959 -196.282)" fill="#83b542" opacity="0.6" />
        </g>
        <g id="Group_16611" data-name="Group 16611" transform="translate(11.209 14.862)">
          <path id="Path_25440-3" data-name="Path 25440" d="M331.338,197.145a.7.7,0,1,1-.517-.843A.7.7,0,0,1,331.338,197.145Z" transform="translate(-329.959 -196.282)" fill="#83b542" opacity="0.6" />
          <path id="Path_25441-3" data-name="Path 25441" d="M331.338,197.145a.7.7,0,1,1-.517-.843A.7.7,0,0,1,331.338,197.145Z" transform="translate(-329.959 -196.282)" fill="#83b542" opacity="0.6" />
        </g>
        <g id="Group_16612" data-name="Group 16612" transform="translate(15.884 7.862)">
          <path id="Path_25440-4" data-name="Path 25440" d="M331.338,197.145a.7.7,0,1,1-.517-.843A.7.7,0,0,1,331.338,197.145Z" transform="translate(-329.959 -196.282)" fill="#83b542" opacity="0.6" />
          <path id="Path_25441-4" data-name="Path 25441" d="M331.338,197.145a.7.7,0,1,1-.517-.843A.7.7,0,0,1,331.338,197.145Z" transform="translate(-329.959 -196.282)" fill="#83b542" opacity="0.6" />
        </g>
        <g id="Group_16570" data-name="Group 16570" transform="translate(22.711 20.452)">
          <path id="Path_25442" data-name="Path 25442" d="M358.95,226a.7.7,0,1,1-.517-.843A.7.7,0,0,1,358.95,226Z" transform="translate(-357.571 -225.138)" fill="#83b542" opacity="0.6" />
          <path id="Path_25443" data-name="Path 25443" d="M358.95,226a.7.7,0,1,1-.517-.843A.7.7,0,0,1,358.95,226Z" transform="translate(-357.571 -225.138)" fill="#83b542" opacity="0.6" />
        </g>
        <g id="Group_16571" data-name="Group 16571" transform="translate(14.719)">
          <path id="Path_25444" data-name="Path 25444" d="M345.077,188.72a1.165,1.165,0,1,1-.862-1.4A1.164,1.164,0,0,1,345.077,188.72Z" transform="translate(-342.779 -187.284)" fill="#83b542" opacity="0.6" />
          <path id="Path_25445" data-name="Path 25445" d="M345.077,188.72a1.165,1.165,0,1,1-.862-1.4A1.164,1.164,0,0,1,345.077,188.72Z" transform="translate(-342.779 -187.284)" fill="#83b542" opacity="0.6" />
        </g>
      </g>
    </g>
  </g>
</svg>