<svg xmlns="http://www.w3.org/2000/svg" xmlns:xlink="http://www.w3.org/1999/xlink" width="50" height="50" viewBox="0 0 36 36">
    <defs>
        <clipPath id="clip-path">
            <rect id="Rectangle_3678" data-name="Rectangle 3678" width="20" height="20" transform="translate(340.211 538.211)" fill="#fff" stroke="#707070" stroke-width="1" />
        </clipPath>
    </defs>
    <g id="Group_16462" data-name="Group 16462" transform="translate(-200 -401)">
        <rect id="Rectangle_4049" data-name="Rectangle 4049" width="36" height="36" rx="2" transform="translate(200 401)" fill="#fff" />
        <g id="Mask_Group_39" data-name="Mask Group 39" transform="translate(-132.211 -129.211)" clip-path="url(#clip-path)">
            <g id="Group_15925" data-name="Group 15925" transform="translate(343.188 540.824)">
                <path id="Path_24275" data-name="Path 24275" d="M699.092,709.261a8.232,8.232,0,0,0-.13-1.466h-6.75v2.772h3.857a3.3,3.3,0,0,1-1.43,2.163v1.8h2.316a6.99,6.99,0,0,0,2.137-5.268Z" transform="translate(-685.044 -701.931)" fill="#3e82f1" fill-rule="evenodd" />
                <path id="Path_24276" data-name="Path 24276" d="M603.758,753.067a6.843,6.843,0,0,0,4.743-1.736l-2.316-1.8a4.324,4.324,0,0,1-6.437-2.271h-2.394v1.857a7.164,7.164,0,0,0,6.4,3.948Z" transform="translate(-596.591 -738.733)" fill="#32a753" fill-rule="evenodd" />
                <path id="Path_24277" data-name="Path 24277" d="M589.219,684a4.236,4.236,0,0,1,0-2.724v-1.857h-2.395a7.176,7.176,0,0,0,0,6.437L589.219,684Z" transform="translate(-586.062 -675.475)" fill="#f9bb00" fill-rule="evenodd" />
                <path id="Path_24278" data-name="Path 24278" d="M603.758,623.8a3.872,3.872,0,0,1,2.74,1.072l2.056-2.056a6.888,6.888,0,0,0-4.8-1.867,7.164,7.164,0,0,0-6.4,3.948l2.394,1.857a4.271,4.271,0,0,1,4.01-2.955Z" transform="translate(-596.591 -620.945)" fill="#e74133" fill-rule="evenodd" />
            </g>
        </g>
    </g>
</svg>
  