<svg id="Group_16259" data-name="Group 16259" xmlns="http://www.w3.org/2000/svg" width="16" height="16" viewBox="0 0 16 16">
    <path id="Path_25175" data-name="Path 25175" d="M0,0H16V16H0Z" fill="none" />
    <path id="Path_25176" data-name="Path 25176" d="M7.828,3.89a3.495,3.495,0,0,1,4.94,4.928L7.827,13.763,2.886,8.819A3.5,3.5,0,0,1,7.828,3.89Zm3.978.956a2.331,2.331,0,0,0-3.2-.089l-.778.7-.779-.7A2.33,2.33,0,0,0,3.737,8.021l4.091,4.094,4.091-4.093a2.328,2.328,0,0,0-.112-3.176Z" transform="translate(0.173 -0.219)" fill="#acb28f" />
</svg>
  