<svg xmlns="http://www.w3.org/2000/svg" width="24" height="24" viewBox="0 0 24 24">
    <g id="Group_16030" data-name="Group 16030" transform="translate(-40 -943)">
        <g id="home-5-fill" transform="translate(40 943)">
            <path id="Path_24612" data-name="Path 24612" d="M0,0H24V24H0Z" fill="none" />
            <path id="Path_24613" data-name="Path 24613" d="M21,20a1,1,0,0,1-1,1H4a1,1,0,0,1-1-1V9.49a1,1,0,0,1,.386-.79l8-6.222a1,1,0,0,1,1.228,0l8,6.222A1,1,0,0,1,21,9.49V20ZM11,13v6h2V13Z" fill="currentColor" />
        </g>
    </g>
</svg>
  