<svg xmlns="http://www.w3.org/2000/svg" width="50" height="50" viewBox="0 0 36 36">
  <g id="Group_16464" data-name="Group 16464" transform="translate(-108 -401)">
    <rect id="Rectangle_4047" data-name="Rectangle 4047" width="36" height="36" rx="2" transform="translate(108 401)" fill="#fee500" />
    <g id="Group_15924" data-name="Group 15924" transform="translate(116.377 409.115)">
      <rect id="Rectangle_3643" data-name="Rectangle 3643" width="20" height="20" rx="5" transform="translate(-0.377 -0.115)" fill="#fee500" />
      <path id="Path_24270" data-name="Path 24270" d="M62.858,77.391c-4.286,0-7.76,2.746-7.76,6.135a6,6,0,0,0,3.681,5.219c-.162.606-.588,2.2-.673,2.535-.105.422.155.416.325.3.133-.089,2.127-1.444,2.987-2.028a9.826,9.826,0,0,0,1.44.106c4.286,0,7.76-2.747,7.76-6.135s-3.474-6.135-7.76-6.135" transform="translate(-53.245 -74.486)" fill="#391b1b" />
    </g>
  </g>
</svg>
  