<svg id="Group_16768" data-name="Group 16768" xmlns="http://www.w3.org/2000/svg" width="20" height="20" viewBox="0 0 20 20">
    <path id="Path_25661" data-name="Path 25661" d="M0,0H20V20H0Z" fill="none" />
    <path id="Path_25662" data-name="Path 25662" d="M9.72,16.112l3.7-3.7a5.227,5.227,0,1,0-7.392,0Zm0,2.112L4.968,13.472a6.72,6.72,0,1,1,9.5,0Zm0-8.01A1.493,1.493,0,1,0,8.227,8.72,1.493,1.493,0,0,0,9.72,10.214Zm0,1.493A2.987,2.987,0,1,1,12.707,8.72,2.987,2.987,0,0,1,9.72,11.707Z" transform="translate(0.28 0.608)" fill="#817e74" />
</svg>
  