<svg xmlns="http://www.w3.org/2000/svg" xmlns:xlink="http://www.w3.org/1999/xlink" width="108" height="30" viewBox="0 0 108 30">
    <defs>
        <clipPath id="clip-path">
            <rect id="Rectangle_3803" data-name="Rectangle 3803" width="108" height="30" transform="translate(23.268 59.177)" fill="#fff" stroke="#707070" stroke-width="1" />
        </clipPath>
    </defs>
    <g id="Mask_Group_44" data-name="Mask Group 44" transform="translate(-23.268 -59.177)" clip-path="url(#clip-path)">
        <g id="Group_16010" data-name="Group 16010" transform="translate(24.02 64.919)">
            <path id="Path_24581" data-name="Path 24581" d="M206.1,176.637h-4.142v12.341H206.1c4.228,0,6.752-2.3,6.752-6.156C212.851,178.949,210.327,176.637,206.1,176.637Zm5.553,6.185c0,3.178-2.008,5-5.509,5h-2.987V177.792h2.987C209.593,177.792,211.652,179.672,211.652,182.822Z" transform="translate(-201.957 -173.247)" fill="#737b4c" stroke="#737b4c" stroke-width="0.3" />
            <path id="Path_24582" data-name="Path 24582" d="M230.759,170.422a6.425,6.425,0,1,0,6.379,6.424A6.178,6.178,0,0,0,230.759,170.422Zm5.18,6.424a5.166,5.166,0,1,1-5.18-5.27A5.047,5.047,0,0,1,235.939,176.846Z" transform="translate(-212.163 -170.422)" fill="#737b4c" stroke="#737b4c" stroke-width="0.3" />
            <path id="Path_24583" data-name="Path 24583" d="M261.407,184.445a4.693,4.693,0,0,1-4.833,3.421,5.271,5.271,0,0,1-.015-10.54,4.658,4.658,0,0,1,4.732,3.268l.063.193H262.6l-.109-.359a5.868,5.868,0,0,0-5.935-4.256,6.425,6.425,0,0,0,.015,12.849,5.889,5.889,0,0,0,6.043-4.431l.089-.348h-1.242Z" transform="translate(-223.897 -173.036)" fill="#737b4c" stroke="#737b4c" stroke-width="0.3" />
            <path id="Path_24584" data-name="Path 24584" d="M283.127,176.637H272.814v1.154h4.564v11.187h1.2V177.792h4.549Z" transform="translate(-234.165 -173.247)" fill="#737b4c" stroke="#737b4c" stroke-width="0.3" />
            <path id="Path_24585" data-name="Path 24585" d="M296.056,181.1a6.425,6.425,0,1,0,6.379,6.424A6.178,6.178,0,0,0,296.056,181.1Zm5.18,6.424a5.166,5.166,0,1,1-5.18-5.27A5.047,5.047,0,0,1,301.236,187.521Z" transform="translate(-241.843 -175.274)" fill="#737b4c" stroke="#737b4c" stroke-width="0.3" />
            <rect id="Rectangle_3801" data-name="Rectangle 3801" width="1.199" height="12.341" transform="translate(74.328 3.39)" fill="#737b4c" stroke="#737b4c" stroke-width="0.3" />
            <path id="Path_24586" data-name="Path 24586" d="M350.123,177.782h5.031a4.705,4.705,0,0,1-4.941,4.364,5.3,5.3,0,0,1-.044-10.6,4.822,4.822,0,0,1,4.845,3.278l.052.212h1.214l-.083-.344a5.984,5.984,0,0,0-6.044-4.271,6.425,6.425,0,0,0,0,12.849,5.9,5.9,0,0,0,6.23-5.962v-.667h-6.261Z" transform="translate(-266.434 -170.422)" fill="#737b4c" stroke="#737b4c" stroke-width="0.3" />
            <rect id="Rectangle_3802" data-name="Rectangle 3802" width="1.199" height="12.341" transform="translate(91.795 3.39)" fill="#737b4c" stroke="#737b4c" stroke-width="0.3" />
            <path id="Path_24587" data-name="Path 24587" d="M385.726,176.637v10.388l-7.686-10.277-.084-.112h-1.224v12.341h1.2V178.59l7.687,10.277.084.112h1.224V176.637Z" transform="translate(-281.401 -173.247)" fill="#737b4c" stroke="#737b4c" stroke-width="0.3" />
            <path id="Path_24588" data-name="Path 24588" d="M327.146,180.541c0-2.408-1.913-3.9-4.992-3.9h-4.41v12.341h1.2V177.792h3.092c2.486,0,3.912,1,3.912,2.749,0,1.565-1.127,2.529-3.175,2.714l-.251.022,3.749,5.7H327.7l-3.242-4.878A3.631,3.631,0,0,0,327.146,180.541Z" transform="translate(-254.588 -173.247)" fill="#737b4c" stroke="#737b4c" stroke-width="0.3" />
        </g>
    </g>
</svg>
  