<svg xmlns="http://www.w3.org/2000/svg" xmlns:xlink="http://www.w3.org/1999/xlink" width="61" height="24" viewBox="0 0 61 24">
    <defs>
        <clipPath id="clip-path">
            <rect id="Rectangle_4191" data-name="Rectangle 4191" width="61" height="24" transform="translate(295 204)" fill="#fff" stroke="#707070" stroke-width="1" />
        </clipPath>
    </defs>
    <g id="Mask_Group_114" data-name="Mask Group 114" transform="translate(-295 -204)" clip-path="url(#clip-path)">
        <g id="Group_16733" data-name="Group 16733" transform="translate(212.951 -730.27)">
            <g id="Group_16731" data-name="Group 16731" transform="translate(112.466 940.958)">
                <path id="Path_25619" data-name="Path 25619" d="M127.142,943.4h3.793a4.779,4.779,0,0,1,1.558.229,3.028,3.028,0,0,1,1.1.633,2.547,2.547,0,0,1,.647.965,3.369,3.369,0,0,1,.213,1.207v.31a3.229,3.229,0,0,1-.228,1.215,2.843,2.843,0,0,1-.668.994,3.176,3.176,0,0,1-1.095.678,4.231,4.231,0,0,1-1.521.25H128.6v4.14h-1.458Zm1.458,1.267v3.948h2.091q2.3,0,2.3-1.9v-.265a1.609,1.609,0,0,0-.553-1.348,2.513,2.513,0,0,0-1.583-.434Z" transform="translate(-127.142 -943.404)" fill="#333" />
                <path id="Path_25620" data-name="Path 25620" d="M143.345,955.626a2.9,2.9,0,0,1-1.937-.6,2.062,2.062,0,0,1-.714-1.665v-.4a2.195,2.195,0,0,1,.692-1.679,3.209,3.209,0,0,1,2.239-.649h2.047v-.471a1.635,1.635,0,0,0-.39-1.2,1.75,1.75,0,0,0-1.274-.391,3.144,3.144,0,0,0-1.23.221,6.792,6.792,0,0,0-1.082.589l-.707-1.061a6.827,6.827,0,0,1,1.326-.714,4.481,4.481,0,0,1,1.709-.3,4.27,4.27,0,0,1,1.238.169,2.778,2.778,0,0,1,.965.5,2.33,2.33,0,0,1,.633.81,2.484,2.484,0,0,1,.229,1.083v5.642h-1.37v-.973H145.7a1.55,1.55,0,0,1-.317.405,2.265,2.265,0,0,1-.435.317,2.988,2.988,0,0,1-.7.273A3.715,3.715,0,0,1,143.345,955.626Zm2.327-3.786h-2.018a1.785,1.785,0,0,0-1.2.324,1.147,1.147,0,0,0-.361.9v.206a.94.94,0,0,0,.412.854,1.788,1.788,0,0,0,.987.265,3.018,3.018,0,0,0,.921-.126,2.293,2.293,0,0,0,.714-.375,1.279,1.279,0,0,0,.42-.508,1.875,1.875,0,0,0,.125-.744Z" transform="translate(-132.298 -944.888)" fill="#333" />
                <path id="Path_25621" data-name="Path 25621" d="M156.751,953.978l2.121-6.437h1.5l-4.183,11.387-1.3-.457,1.046-2.754-2.931-8.176h1.546l2.136,6.437Z" transform="translate(-136.985 -944.978)" fill="#333" />
            </g>
            <g id="Group_16732" data-name="Group 16732" transform="translate(88.571 936.976)">
                <rect id="Rectangle_4189" data-name="Rectangle 4189" width="18" height="18" transform="translate(0.478 0.294)" fill="#00c73c" />
                <path id="Path_25622" data-name="Path 25622" d="M102.195,953.617l-3-4.4v4.4H96.071v-8.508h3.17l3,4.4v-4.4h3.125v8.508Z" transform="translate(-91.425 -940.07)" fill="#fff" />
            </g>
        </g>
    </g>
</svg>
  