<svg xmlns="http://www.w3.org/2000/svg" width="24" height="24" viewBox="0 0 24 24">
    <g id="Group_16115" data-name="Group 16115" transform="translate(19474 21523)">
        <path id="Path_23723" data-name="Path 23723" d="M0,0H24V24H0Z" transform="translate(-19474 -21523)" fill="none" />
        <path id="Subtraction_1" data-name="Subtraction 1" d="M16.535,16.535H.2V14.56c0-.818.527-2,3.039-3.011A15.223,15.223,0,0,1,8.367,10.52,15.223,15.223,0,0,1,13.5,11.549c2.512,1.006,3.039,2.193,3.039,3.011v1.974ZM8.367,12.407c-2.65,0-6,1.267-6.277,2.126l-.037.116H14.678l-.032-.113c-.133-.474-1.216-1.017-2.184-1.366A12.579,12.579,0,0,0,8.367,12.407Zm0-4.129a4.039,4.039,0,1,1,4.04-4.04A4.044,4.044,0,0,1,8.367,8.278Zm0-6.193A2.153,2.153,0,1,0,10.52,4.239,2.155,2.155,0,0,0,8.367,2.086Z" transform="translate(-19470.367 -21519.367)" fill="currentColor" />
    </g>
</svg>
  