<svg xmlns="http://www.w3.org/2000/svg" xmlns:xlink="http://www.w3.org/1999/xlink" width="69" height="69" viewBox="0 0 69 69">
    <defs>
        <clipPath id="clip-path">
            <rect id="Rectangle_4241" data-name="Rectangle 4241" width="69" height="69" transform="translate(227 352)" fill="#fff" stroke="#707070" stroke-width="1" />
        </clipPath>
        <clipPath id="clip-path-2">
            <rect id="Rectangle_4239" data-name="Rectangle 4239" width="58.217" height="48.003" fill="none" stroke="#5a5a5a" stroke-width="1.5" />
        </clipPath>
    </defs>
    <g id="Group_16777" data-name="Group 16777" transform="translate(-209 -350)">
        <g id="Mask_Group_127" data-name="Mask Group 127" transform="translate(-18 -2)" clip-path="url(#clip-path)">
            <g id="Group_16776" data-name="Group 16776" transform="translate(232.845 362.17)">
                <g id="Group_16773" data-name="Group 16773" transform="translate(0 0)">
                    <g id="Group_16772" data-name="Group 16772" clip-path="url(#clip-path-2)">
                        <line id="Line_164" data-name="Line 164" y2="5.392" transform="translate(2.696 18.693)" fill="none" stroke="#83b542" stroke-width="1.5" />
                        <line id="Line_165" data-name="Line 165" x2="5.392" transform="translate(0 21.39)" fill="none" stroke="#83b542" stroke-width="1.5" />
                    </g>
                </g>
                <line id="Line_166" data-name="Line 166" x2="8.628" transform="translate(7.774 21.389)" fill="none" stroke="#5a5a5a" stroke-width="1.5" />
                <g id="Group_16775" data-name="Group 16775" transform="translate(0 0)">
                    <g id="Group_16774" data-name="Group 16774" clip-path="url(#clip-path-2)">
                        <path id="Path_25678" data-name="Path 25678" d="M40.944,7.631V10.1H67.263V7.631A6.382,6.382,0,0,0,60.882,1.25H36.213a6.071,6.071,0,0,0-.821.061,6.376,6.376,0,0,1,5.552,6.32" transform="translate(-9.945 -0.351)" fill="#fff" stroke="#5a5a5a" stroke-width="1.5" />
                        <path id="Path_25679" data-name="Path 25679" d="M40.944,7.631V10.1H67.263V7.631A6.382,6.382,0,0,0,60.882,1.25H36.213a6.071,6.071,0,0,0-.821.061A6.376,6.376,0,0,1,40.944,7.631Z" transform="translate(-9.945 -0.351)" fill="none" stroke="#5a5a5a" stroke-width="1.5" />
                        <path id="Path_25680" data-name="Path 25680" d="M56.064,1.25H27.529a6.382,6.382,0,0,0-6.382,6.381l.1,33.443a6.383,6.383,0,0,1-6.382,6.381H43.4a6.383,6.383,0,0,0,6.383-6.381l-.1-33.443A6.382,6.382,0,0,1,56.064,1.25" transform="translate(-4.179 -0.351)" fill="#fff" stroke="#5a5a5a" stroke-width="1.5" />
                        <path id="Path_25681" data-name="Path 25681" d="M56.064,1.25H27.529a6.382,6.382,0,0,0-6.382,6.381l.1,33.443a6.383,6.383,0,0,1-6.382,6.381H43.4a6.383,6.383,0,0,0,6.383-6.381l-.1-33.443A6.382,6.382,0,0,1,56.064,1.25Z" transform="translate(-4.179 -0.351)" fill="none" stroke="#5a5a5a" stroke-width="1.5" />
                        <path id="Path_25682" data-name="Path 25682" d="M32.866,55.675V53.21H6.547v2.465a6.382,6.382,0,0,0,6.382,6.381H37.6A6.044,6.044,0,0,0,38.417,62a6.376,6.376,0,0,1-5.551-6.32" transform="translate(-1.84 -14.952)" fill="#c1daa0" stroke="#5a5a5a" stroke-width="1.5" />
                        <path id="Path_25683" data-name="Path 25683" d="M32.866,55.675V53.21H6.547v2.465a6.382,6.382,0,0,0,6.382,6.381H37.6A6.044,6.044,0,0,0,38.417,62,6.376,6.376,0,0,1,32.866,55.675Z" transform="translate(-1.84 -14.952)" fill="none" stroke="#5a5a5a" stroke-linecap="round" stroke-linejoin="round" stroke-width="1.5" />
                        <line id="Line_170" data-name="Line 170" x2="17.949" transform="translate(22.475 7.182)" fill="none" stroke="#5a5a5a" stroke-width="1.5" />
                        <line id="Line_172" data-name="Line 172" x2="17.949" transform="translate(22.475 14.01)" fill="none" stroke="#5a5a5a" stroke-width="1.5" />
                        <line id="Line_174" data-name="Line 174" x2="17.949" transform="translate(22.475 20.836)" fill="none" stroke="#5a5a5a" stroke-width="1.5" />
                        <line id="Line_175" data-name="Line 175" x2="17.949" transform="translate(22.475 27.664)" fill="none" stroke="#5a5a5a" stroke-width="1.5" />
                        <line id="Line_176" data-name="Line 176" x2="6.18" transform="translate(22.477 34.49)" fill="none" stroke="#5a5a5a" stroke-width="1.5" />
                    </g>
                </g>
            </g>
        </g>
        <ellipse id="Ellipse_3528" data-name="Ellipse 3528" cx="2.094" cy="2.094" rx="2.094" ry="2.094" transform="translate(266.813 392.254)" fill="none" stroke="#ffc833" stroke-linejoin="round" stroke-width="1.5" />
    </g>
</svg>
  