<svg xmlns="http://www.w3.org/2000/svg" width="69" height="69" viewBox="0 0 69 69">
    <g id="Group_16778" data-name="Group 16778" transform="translate(-36 -350)">
        <path id="Path_25152" data-name="Path 25152" d="M34.5,0A34.5,34.5,0,1,1,0,34.5,34.5,34.5,0,0,1,34.5,0Z" transform="translate(36 350)" fill="none" />
        <path id="Path_24991" data-name="Path 24991" d="M247.425,327.44a11.932,11.932,0,0,0-2.533-2.38,15.038,15.038,0,0,0-8.665-2.637h-8.433a15.219,15.219,0,0,0-8.142,2.284,12.428,12.428,0,0,0-3.047,2.71,9.736,9.736,0,0,0-2.2,6.1v6.987c0,6.127,6,11.1,13.391,11.1h8.433c7.394,0,13.391-4.969,13.391-11.1v-6.987A9.717,9.717,0,0,0,247.425,327.44Z" transform="translate(-160.781 41.746)" fill="#fff" stroke="#5a5a5a" stroke-linecap="round" stroke-linejoin="round" stroke-width="1.5" />
        <path id="Path_24995" data-name="Path 24995" d="M209.469,326.443V319.2h6.018" transform="translate(-160.637 41.842)" fill="none" stroke="#5a5a5a" stroke-linecap="round" stroke-linejoin="round" stroke-width="1.5" />
        <path id="Path_24996" data-name="Path 24996" d="M255.444,326.443V319.2h-6.018" transform="translate(-161.818 41.842)" fill="none" stroke="#5a5a5a" stroke-linecap="round" stroke-linejoin="round" stroke-width="1.5" />
        <path id="Path_24997" data-name="Path 24997" d="M209.469,360.085v7.248h6.018" transform="translate(-160.637 40.629)" fill="none" stroke="#5a5a5a" stroke-linecap="round" stroke-linejoin="round" stroke-width="1.5" />
        <path id="Path_24998" data-name="Path 24998" d="M255.444,360.085v7.248h-6.018" transform="translate(-161.818 40.629)" fill="none" stroke="#5a5a5a" stroke-linecap="round" stroke-linejoin="round" stroke-width="1.5" />
        <ellipse id="Ellipse_3432" data-name="Ellipse 3432" cx="2.094" cy="2.094" rx="2.094" ry="2.094" transform="translate(99.813 391.254)" fill="none" stroke="#ffc833" stroke-linejoin="round" stroke-width="1.5" />
        <g id="Group_16192" data-name="Group 16192" transform="translate(37.164 375.273)">
            <g id="Group_16191" data-name="Group 16191" transform="translate(0 0)">
                <g id="Group_16189" data-name="Group 16189" transform="translate(2.71)">
                    <line id="Line_61" data-name="Line 61" y2="5.419" fill="none" stroke="#83b542" stroke-miterlimit="10" stroke-width="1.5" />
                </g>
                <g id="Group_16190" data-name="Group 16190" transform="translate(0 2.71)">
                    <line id="Line_62" data-name="Line 62" x2="5.419" fill="none" stroke="#83b542" stroke-miterlimit="10" stroke-width="1.5" />
                </g>
            </g>
        </g>
        <path id="Path_25706" data-name="Path 25706" d="M13.876,27.7c.355,2.174-.793,4.172-2.567,4.461s-3.5-1.236-3.853-3.41.793-4.17,2.566-4.46S13.521,25.532,13.876,27.7Z" transform="translate(44.449 359.053)" fill="#fff" stroke="#5a5a5a" stroke-linecap="round" stroke-linejoin="round" stroke-width="1.5" />
        <path id="Path_25707" data-name="Path 25707" d="M7.456,27.705c-.355,2.174.793,4.172,2.567,4.462s3.5-1.236,3.853-3.41-.793-4.17-2.566-4.461S7.811,25.532,7.456,27.705Z" transform="translate(76.941 359.053)" fill="#fff" stroke="#5a5a5a" stroke-linecap="round" stroke-linejoin="round" stroke-width="1.5" />
        <path id="Path_24992" data-name="Path 24992" d="M246.485,339.563v11.412a12.656,12.656,0,0,1-1.116,5.221,12.814,12.814,0,0,1-11.713,7.6h-3.1a8.23,8.23,0,0,1-.854-.039c-.107,0-.223-.01-.33-.019-.223-.019-.446-.039-.66-.077a.44.44,0,0,1-.155-.029,6.668,6.668,0,0,1-.767-.136.528.528,0,0,1-.146-.039,5.29,5.29,0,0,1-.563-.146c-.146-.029-.281-.078-.417-.116-.466-.155-.922-.33-1.359-.524-.223-.1-.446-.2-.66-.32-.01,0-.019-.01-.029-.019a6.783,6.783,0,0,1-.64-.359,11.951,11.951,0,0,1-1.815-1.31c-.184-.165-.369-.33-.543-.5s-.349-.349-.514-.534-.33-.369-.485-.563-.311-.388-.456-.592a12.055,12.055,0,0,1-1.32-2.271,12.656,12.656,0,0,1-1.116-5.221V339.563c0-.408.02-.805.058-1.2a11.21,11.21,0,0,0,9.752-8.287,11.2,11.2,0,0,0,10.17,6.511v-3.513a11.2,11.2,0,0,0,8.743,5.715C246.476,339.049,246.485,339.3,246.485,339.563Z" transform="translate(-160.883 41.52)" fill="#fff" stroke="#5a5a5a" stroke-linecap="round" stroke-linejoin="round" stroke-width="1.5" />
        <path id="Path_24993" data-name="Path 24993" d="M238.01,353.851h0c0,1.1-1.329,2-2.967,2h-2.436c-1.638,0-2.965-.895-2.965-2h0" transform="translate(-162.596 39.818)" fill="#fff" stroke="#5a5a5a" stroke-linecap="round" stroke-linejoin="round" stroke-width="1.5" />
        <path id="Path_24994" data-name="Path 24994" d="M246.56,339.809v11.412a12.656,12.656,0,0,1-1.116,5.221,12.814,12.814,0,0,1-11.712,7.6h-3.1a8.271,8.271,0,0,1-.854-.039c-.107,0-.223-.01-.33-.019-.223-.019-.446-.039-.66-.078a.442.442,0,0,1-.155-.029,6.683,6.683,0,0,1-.767-.136.521.521,0,0,1-.146-.039,5.326,5.326,0,0,1-.563-.145c-.146-.029-.281-.078-.417-.116-.466-.155-.922-.33-1.358-.524-.223-.1-.446-.2-.66-.32-.01,0-.019-.01-.029-.02a6.8,6.8,0,0,1-.64-.359,12.9,12.9,0,0,1-1.815-1.31c-.184-.165-.369-.33-.543-.5s-.349-.349-.514-.534-.33-.369-.485-.563-.311-.388-.456-.592a12.732,12.732,0,0,0,7.491,2.436h3.1a12.818,12.818,0,0,0,12.828-12.828v-9.946a11.27,11.27,0,0,0,2.872.66C246.55,339.295,246.56,339.547,246.56,339.809Z" transform="translate(-160.953 41.275)" fill="#83b542" opacity="0.5" style="mix-blend-mode: darken;isolation: isolate" />
        <path id="Path_25704" data-name="Path 25704" d="M19.252,28.154a1.944,1.944,0,0,0-1.719-1.242,1.934,1.934,0,0,0-1.715,1.242" transform="translate(47.057 358.588)" fill="none" stroke="#5a5a5a" stroke-linecap="round" stroke-linejoin="round" stroke-width="1.5" />
        <path id="Path_25705" data-name="Path 25705" d="M19.252,28.154a1.944,1.944,0,0,0-1.719-1.242,1.934,1.934,0,0,0-1.715,1.242" transform="translate(60.057 358.588)" fill="none" stroke="#5a5a5a" stroke-linecap="round" stroke-linejoin="round" stroke-width="1.5" />
    </g>
</svg>
  