<svg xmlns="http://www.w3.org/2000/svg" xmlns:xlink="http://www.w3.org/1999/xlink" width="24" height="24" viewBox="0 0 24 24">
    <defs>
        <clipPath id="clip-path">
            <rect id="Rectangle_4067" data-name="Rectangle 4067" width="24" height="24" transform="translate(124 371)" fill="#fff" stroke="#707070" stroke-width="1" />
        </clipPath>
    </defs>
    <g id="Mask_Group_77" data-name="Mask Group 77" transform="translate(-124 -371)" clip-path="url(#clip-path)">
        <g id="Group_16476" data-name="Group 16476" transform="translate(12.392 283.031)">
            <path id="Path_25302" data-name="Path 25302" d="M124.081,95.3a1.313,1.313,0,0,0,.951-.394c.8-.842-.032-2.148-.949-3.159-.919,1.011-1.748,2.317-.951,3.159A1.312,1.312,0,0,0,124.081,95.3Z" transform="translate(7.389 0.379)" fill="#ffc833" />
            <path id="Path_25303" data-name="Path 25303" d="M114.336,94.9a1.341,1.341,0,0,0,1.9,0c.8-.842-.032-2.148-.949-3.159C114.369,92.754,113.538,94.06,114.336,94.9Z" transform="translate(0.698 0.379)" fill="#ffc833" />
            <path id="Path_25304" data-name="Path 25304" d="M119.685,96.087a1.3,1.3,0,0,0,.949-.394c.8-.84-.032-2.146-.949-3.159-.919,1.012-1.748,2.319-.951,3.159A1.306,1.306,0,0,0,119.685,96.087Z" transform="translate(4.044 0.981)" fill="#ffc833" />
            <path id="Path_25305" data-name="Path 25305" d="M122.911,95.807a2.1,2.1,0,0,0,3.009,0c.7-.734,1.065-2.092-1.123-4.4a.522.522,0,0,0-.38-.164h0a.529.529,0,0,0-.382.164h0C121.846,93.715,122.215,95.073,122.911,95.807Zm1.505-3.685c.917,1.011,1.747,2.317.949,3.159a1.341,1.341,0,0,1-1.9,0C122.668,94.439,123.5,93.133,124.416,92.122Z" transform="translate(7.056)" fill="#5a5a5a" />
            <path id="Path_25306" data-name="Path 25306" d="M120.619,100.244a.637.637,0,1,0,.637-.637A.637.637,0,0,0,120.619,100.244Z" transform="translate(5.722 6.361)" fill="#5a5a5a" />
            <path id="Path_25307" data-name="Path 25307" d="M118.664,100.95a.637.637,0,1,0,.637-.637A.638.638,0,0,0,118.664,100.95Z" transform="translate(4.235 6.898)" fill="#5a5a5a" />
            <path id="Path_25308" data-name="Path 25308" d="M133.606,98.36a4.463,4.463,0,0,0-2.192.836c-1.12.636-2,.144-2.972-.421a3.143,3.143,0,0,0-2.44-.3c-.9.264-1.463,1.028-2.467,1.028s-1.564-.761-2.465-1.028a3.137,3.137,0,0,0-2.44.3c-.94.548-1.777,1.051-2.884.47a4.9,4.9,0,0,0-2.278-.886c-.491-.021-.491.743,0,.764,1.012.044,1.549.761,2.465,1.028a3.149,3.149,0,0,0,2.442-.3c.972-.565,1.845-1.06,2.969-.421a3.293,3.293,0,0,0,4.386,0c1.122-.639,2-.144,2.97.421a3.144,3.144,0,0,0,2.326.324c.963-.238,1.535-1.011,2.581-1.056C134.1,99.1,134.1,98.339,133.606,98.36Z" transform="translate(0 5.409)" fill="#5a5a5a" />
            <path id="Path_25309" data-name="Path 25309" d="M123.228,100.313a.637.637,0,1,0,.637.637A.637.637,0,0,0,123.228,100.313Z" transform="translate(7.222 6.898)" fill="#5a5a5a" />
            <path id="Path_25310" data-name="Path 25310" d="M114.737,100.95a.637.637,0,1,0,.637-.637A.638.638,0,0,0,114.737,100.95Z" transform="translate(1.247 6.898)" fill="#5a5a5a" />
            <path id="Path_25311" data-name="Path 25311" d="M116.71,100.244a.637.637,0,1,0,.637-.637A.637.637,0,0,0,116.71,100.244Z" transform="translate(2.748 6.361)" fill="#5a5a5a" />
            <path id="Path_25312" data-name="Path 25312" d="M133.606,96.584H113.466a.383.383,0,0,0,0,.766h20.139A.383.383,0,0,0,133.606,96.584Z" transform="translate(0 4.062)" fill="#5a5a5a" />
            <path id="Path_25313" data-name="Path 25313" d="M133.606,95.173H113.466a.382.382,0,0,0,0,.764h20.139A.382.382,0,0,0,133.606,95.173Z" transform="translate(0 2.988)" fill="#5a5a5a" />
            <path id="Path_25314" data-name="Path 25314" d="M118.513,96.6a2.1,2.1,0,0,0,3.009,0c.7-.734,1.065-2.092-1.122-4.4a.529.529,0,0,0-.382-.164h0a.529.529,0,0,0-.382.164h0C117.448,94.506,117.817,95.864,118.513,96.6Zm1.505-3.685c.917,1.012,1.747,2.319.949,3.159a1.341,1.341,0,0,1-1.9,0C118.27,95.232,119.1,93.925,120.018,92.913Z" transform="translate(3.71 0.602)" fill="#5a5a5a" />
            <path id="Path_25315" data-name="Path 25315" d="M115.238,91.409c-2.189,2.307-1.819,3.664-1.123,4.4a2.1,2.1,0,0,0,3.011,0c.7-.734,1.065-2.092-1.123-4.4a.529.529,0,0,0-.382-.164h0a.529.529,0,0,0-.382.164Zm1.331,3.872a1.341,1.341,0,0,1-1.9,0c-.8-.842.033-2.148.951-3.159C116.538,93.133,117.369,94.439,116.569,95.281Z" transform="translate(0.364)" fill="#5a5a5a" />
        </g>
    </g>
</svg>
  