<svg xmlns="http://www.w3.org/2000/svg" xmlns:xlink="http://www.w3.org/1999/xlink" width="24" height="24" viewBox="0 0 24 24">
    <defs>
        <clipPath id="clip-path">
            <rect id="Rectangle_4066" data-name="Rectangle 4066" width="24" height="24" transform="translate(123 317)" fill="#fff" stroke="#707070" stroke-width="1" />
        </clipPath>
    </defs>
    <g id="Mask_Group_76" data-name="Mask Group 76" transform="translate(-123 -317)" clip-path="url(#clip-path)">
        <g id="Group_16475" data-name="Group 16475" transform="translate(3.761 244.553)">
            <path id="Path_25288" data-name="Path 25288" d="M130.486,76.4l-.415.757a.61.61,0,0,1-.242.244l-.757.414.757.414a.61.61,0,0,1,.242.244l.415.757.414-.757a.606.606,0,0,1,.242-.242l.757-.415-.757-.414a.6.6,0,0,1-.242-.244Z" transform="translate(6.242 0.66)" fill="#83b542" />
            <path id="Path_25289" data-name="Path 25289" d="M126.622,78.178l-.244.447a.558.558,0,0,1-.221.221l-.447.244.447.245a.547.547,0,0,1,.221.221l.244.447.245-.447a.558.558,0,0,1,.221-.221l.447-.245-.447-.244a.551.551,0,0,1-.221-.223Z" transform="translate(3.713 1.996)" fill="#83b542" />
            <path id="Path_25290" data-name="Path 25290" d="M130.884,75.876h0a.609.609,0,0,0-.536.317l-.526.96-.96.526a.61.61,0,0,0,0,1.071l.96.524.526.962a.612.612,0,0,0,.536.317h0a.611.611,0,0,0,.535-.317l.526-.962.96-.524a.61.61,0,0,0,0-1.071l-.96-.526-.526-.96A.608.608,0,0,0,130.884,75.876Zm1.413,2.338-.757.415a.606.606,0,0,0-.242.242l-.414.757-.415-.757a.61.61,0,0,0-.242-.244l-.757-.414.757-.414a.61.61,0,0,0,.242-.244l.415-.757.414.757a.6.6,0,0,0,.242.244Z" transform="translate(5.845 0.264)" fill="#83b542" />
            <path id="Path_25291" data-name="Path 25291" d="M127.044,77.618a.558.558,0,0,0-.489.289l-.394.72-.72.394a.559.559,0,0,0,0,.98l.72.393.394.72a.558.558,0,0,0,.98,0l.394-.72.72-.393a.559.559,0,0,0,0-.98l-.72-.394-.394-.72A.558.558,0,0,0,127.044,77.618Zm.913,1.893-.447.245a.558.558,0,0,0-.221.221l-.245.447-.244-.447a.547.547,0,0,0-.221-.221l-.447-.245.447-.244a.558.558,0,0,0,.221-.221l.244-.447.245.445a.551.551,0,0,0,.221.223Z" transform="translate(3.291 1.575)" fill="#83b542" />
            <path id="Path_25292" data-name="Path 25292" d="M121.146,82.257h20.046a.381.381,0,0,0,0-.761H121.146A.381.381,0,0,0,121.146,82.257Z" transform="translate(0 4.494)" fill="#5a5a5a" stroke="#5a5a5a" stroke-width="0.2" />
            <path id="Path_25293" data-name="Path 25293" d="M141.192,83.272a4.408,4.408,0,0,0-2.184.832c-1.113.631-1.989.144-2.957-.421a3.142,3.142,0,0,0-2.431-.294c-.9.265-1.456,1.024-2.454,1.024s-1.558-.755-2.454-1.024a3.141,3.141,0,0,0-2.431.294c-.936.547-1.768,1.046-2.869.468a4.879,4.879,0,0,0-2.268-.88c-.491-.023-.489.74,0,.761,1.008.044,1.542.755,2.454,1.024a3.136,3.136,0,0,0,2.429-.294c.967-.564,1.837-1.057,2.957-.421a3.276,3.276,0,0,0,4.364,0c1.116-.636,1.991-.144,2.958.421a3.124,3.124,0,0,0,2.313.322c.959-.238,1.53-1.006,2.571-1.052C141.679,84.012,141.683,83.25,141.192,83.272Z" transform="translate(0 5.826)" fill="#5a5a5a" stroke="#5a5a5a" stroke-width="0.2" />
            <path id="Path_25294" data-name="Path 25294" d="M121.146,80.846h20.046a.381.381,0,0,0,0-.762H121.146A.381.381,0,0,0,121.146,80.846Z" transform="translate(0 3.431)" fill="#5a5a5a" stroke="#5a5a5a" stroke-width="0.2" />
            <path id="Path_25295" data-name="Path 25295" d="M124.552,76.9h.247v.247a.381.381,0,0,0,.761,0V76.9h.247a.381.381,0,0,0,0-.761h-.247v-.247a.381.381,0,0,0-.761,0v.247h-.247A.381.381,0,0,0,124.552,76.9Z" transform="translate(2.564)" fill="#83b542" stroke="#83b542" stroke-width="0.2" />
            <path id="Path_25296" data-name="Path 25296" d="M122.654,77.875v.689h-.689a.381.381,0,0,0,0,.762h.689v.689a.381.381,0,0,0,.762,0v-.689h.689a.381.381,0,0,0,0-.762h-.689v-.689A.381.381,0,0,0,122.654,77.875Z" transform="translate(0.616 1.491)" fill="#83b542" stroke="#83b542" stroke-width="0.2" />
            <path id="Path_25297" data-name="Path 25297" d="M129.568,85.152a.634.634,0,1,0-.634.634A.634.634,0,0,0,129.568,85.152Z" transform="translate(5.66 6.768)" fill="#5a5a5a" stroke="#5a5a5a" stroke-width="0.2" />
            <path id="Path_25298" data-name="Path 25298" d="M130.906,85.224a.634.634,0,1,0,.634.634A.634.634,0,0,0,130.906,85.224Z" transform="translate(7.145 7.299)" fill="#5a5a5a" stroke="#5a5a5a" stroke-width="0.2" />
            <path id="Path_25299" data-name="Path 25299" d="M125.024,84.518a.634.634,0,1,0,.634.634A.634.634,0,0,0,125.024,84.518Z" transform="translate(2.718 6.768)" fill="#5a5a5a" stroke="#5a5a5a" stroke-width="0.2" />
            <path id="Path_25300" data-name="Path 25300" d="M122.417,85.858a.634.634,0,1,0,.636-.634A.635.635,0,0,0,122.417,85.858Z" transform="translate(1.234 7.299)" fill="#5a5a5a" stroke="#5a5a5a" stroke-width="0.2" />
            <path id="Path_25301" data-name="Path 25301" d="M126.979,85.224a.634.634,0,1,0,.634.634A.634.634,0,0,0,126.979,85.224Z" transform="translate(4.19 7.299)" fill="#5a5a5a" stroke="#5a5a5a" stroke-width="0.2" />
        </g>
    </g>
</svg>
  